<svg width="240" height="206" viewBox="0 0 240 206" fill="none" xmlns="http://www.w3.org/2000/svg">
<g clip-path="url(#clip0_272_7507)">
<path d="M76.6551 28.4447C74.7259 18.1471 77.7632 6.43187 86.2054 0.19873C85.727 11.5808 89.3008 22.7649 96.2946 31.772C99.0044 35.236 102.38 38.8073 102.275 43.1996C102.21 45.9326 100.728 48.4786 98.775 50.3967C96.8218 52.3148 94.416 53.6977 92.0389 55.0591L91.6689 55.6331C84.7006 47.7944 78.5843 38.7423 76.6551 28.4447Z" fill="#F0F0F0"/>
<path d="M86.3592 0.356213C82.8124 8.27286 81.8569 17.1028 83.6285 25.5919C83.9773 27.4261 84.6139 29.1941 85.5147 30.8307C86.4439 32.3966 87.7767 33.6858 89.3744 34.5643C90.8477 35.4133 92.4533 36.1116 93.6939 37.303C94.3199 37.9222 94.8076 38.6664 95.125 39.4868C95.4423 40.3072 95.5822 41.1853 95.5355 42.0634C95.4761 44.2543 94.6308 46.2933 93.7348 48.2587C92.7399 50.4408 91.6718 52.6916 91.7364 55.1449C91.7442 55.4422 91.2813 55.4369 91.2734 55.1401C91.1612 50.8717 94.2554 47.4438 94.9448 43.3481C95.2665 41.437 95.0127 39.4176 93.6655 37.9363C92.4874 36.6409 90.8324 35.9194 89.3332 35.0726C87.7619 34.2384 86.4194 33.0331 85.4229 31.5621C84.4413 29.9766 83.7376 28.236 83.3416 26.415C82.3846 22.3294 82.0776 18.1192 82.432 13.9386C82.8098 9.16501 84.0037 4.49108 85.962 0.119012C86.0833 -0.151541 86.4798 0.0874291 86.3592 0.356213Z" fill="white"/>
<path d="M82.8967 22.8919C81.4282 22.995 79.9708 22.5742 78.7848 21.7045C77.5987 20.8349 76.7613 19.5731 76.4219 18.1445C76.3543 17.8552 76.8018 17.7367 76.8696 18.0264C77.1831 19.3573 77.9633 20.5326 79.0695 21.3401C80.1756 22.1477 81.5347 22.5343 82.9015 22.4303C83.1986 22.408 83.1921 22.8698 82.8967 22.8919Z" fill="white"/>
<path d="M88.5706 34.232C90.5641 31.9837 91.6346 29.0688 91.5688 26.0683C91.5621 25.771 92.025 25.7762 92.0318 26.0731C92.0944 29.1956 90.9741 32.2268 88.8945 34.5618C88.6961 34.7843 88.3733 34.4532 88.5706 34.232Z" fill="white"/>
<path d="M83.3522 9.45175C83.9287 9.52994 84.5157 9.4641 85.0604 9.26015C85.6051 9.0562 86.0905 8.72051 86.4729 8.28324C86.6684 8.05839 86.991 8.38976 86.7968 8.61312C86.372 9.09427 85.8355 9.46435 85.2342 9.69102C84.6329 9.91768 83.9851 9.99405 83.3474 9.91343C83.2866 9.91085 83.2291 9.88531 83.1866 9.84198C83.144 9.79866 83.1196 9.7408 83.1183 9.68017C83.1193 9.61904 83.1444 9.56076 83.1882 9.51799C83.232 9.47522 83.2909 9.45141 83.3522 9.45175Z" fill="white"/>
<path d="M120.729 8.71646C120.611 8.86031 120.493 9.00415 120.376 9.15177C118.799 11.0938 117.383 13.1605 116.142 15.3312C116.043 15.4975 115.946 15.6676 115.852 15.8364C112.917 21.0981 110.988 26.8574 110.161 32.8216C109.835 35.1952 109.689 37.5902 109.727 39.9857C109.779 43.2941 110.1 46.8771 109.083 49.9198C108.98 50.2385 108.858 50.5505 108.717 50.8541L92.3997 56.0389C92.3567 56.0321 92.3147 56.0291 92.2715 56.0224L91.6295 56.2591C91.6189 56.1357 91.6106 56.0075 91.6 55.884C91.5935 55.8125 91.5907 55.7397 91.5843 55.6682C91.5811 55.6201 91.5782 55.5719 91.5726 55.5288C91.5714 55.5128 91.5705 55.4967 91.5706 55.4844C91.565 55.4412 91.5644 55.4005 91.56 55.361C91.5115 54.6444 91.4666 53.9265 91.4293 53.2063C91.4281 53.2026 91.4281 53.2026 91.4306 53.1978C91.1505 47.7125 91.3271 42.1557 92.3439 36.8022C92.3745 36.6412 92.4038 36.4765 92.4419 36.3131C92.9136 33.9025 93.5821 31.5345 94.4406 29.2326C94.9148 27.9736 95.4526 26.7394 96.0519 25.5347C97.6064 22.4248 99.6418 19.5782 102.083 17.0992C106.951 12.1579 113.349 8.82434 120.205 8.71937C120.381 8.71679 120.553 8.7153 120.729 8.71646Z" fill="#F0F0F0"/>
<path d="M120.759 8.93469C113.147 13.126 107.054 19.6025 103.344 27.4443C102.515 29.1183 101.956 30.9121 101.687 32.7597C101.484 34.568 101.769 36.3976 102.515 38.0584C103.179 39.6209 104.039 41.1425 104.31 42.8387C104.436 43.709 104.376 44.5961 104.135 45.4417C103.893 46.2873 103.474 47.0723 102.907 47.7454C101.537 49.4591 99.6311 50.5796 97.7292 51.6108C95.6174 52.7557 93.4059 53.9115 91.9763 55.9091C91.8031 56.1511 91.4367 55.869 91.6096 55.6273C94.0968 52.1518 98.6368 51.2727 101.66 48.4165C103.07 47.0838 104.087 45.319 103.905 43.3273C103.747 41.5856 102.861 40.0158 102.175 38.4395C101.424 36.8299 101.08 35.0615 101.172 33.2886C101.346 31.4333 101.834 29.621 102.618 27.9292C104.32 24.0925 106.617 20.5465 109.423 17.4213C112.607 13.8368 116.382 10.8218 120.585 8.50676C120.845 8.36358 121.017 8.79245 120.759 8.93469Z" fill="white"/>
<path d="M104.389 24.8491C103.155 24.0496 102.245 22.8385 101.823 21.432C101.401 20.0255 101.494 18.5151 102.086 17.1707C102.206 16.8991 102.635 17.0733 102.514 17.3452C101.961 18.5962 101.875 20.003 102.27 21.312C102.666 22.621 103.518 23.7457 104.672 24.4834C104.922 24.644 104.638 25.0088 104.389 24.8491Z" fill="white"/>
<path d="M102.074 37.3103C105.023 36.7122 107.637 35.0276 109.396 32.5924C109.57 32.351 109.936 32.6331 109.763 32.8742C107.928 35.405 105.203 37.1525 102.133 37.7682C101.84 37.8267 101.783 37.3685 102.074 37.3103Z" fill="white"/>
<path d="M112.867 14.3913C113.28 14.7999 113.788 15.0998 114.346 15.264C114.904 15.4282 115.494 15.4516 116.064 15.3322C116.356 15.27 116.413 15.7283 116.123 15.79C115.494 15.9191 114.842 15.8925 114.225 15.7124C113.608 15.5323 113.045 15.2043 112.584 14.757C112.537 14.7185 112.507 14.6636 112.499 14.6034C112.491 14.5433 112.507 14.4824 112.542 14.4332C112.58 14.385 112.635 14.3535 112.696 14.3457C112.757 14.3378 112.818 14.3542 112.867 14.3913Z" fill="white"/>
<path d="M169.798 78.0621C169.841 78.2509 169.869 78.4428 169.882 78.636L184.952 87.3067L188.615 85.2036L192.52 90.3022L186.398 94.6539C185.904 95.0054 185.308 95.1875 184.701 95.1727C184.094 95.158 183.508 94.9472 183.031 94.5721L167.491 82.3451C166.789 82.604 166.026 82.6439 165.301 82.4593C164.576 82.2748 163.925 81.8746 163.434 81.312C162.943 80.7494 162.636 80.0511 162.553 79.3099C162.469 78.5687 162.614 77.8198 162.968 77.1628C163.322 76.5057 163.868 75.9717 164.534 75.6318C165.199 75.2918 165.953 75.162 166.694 75.2596C167.436 75.3573 168.13 75.6777 168.684 76.1783C169.238 76.6789 169.627 77.336 169.798 78.0621Z" fill="#FFB6B6"/>
<path d="M185.161 86.3494C185.209 86.1282 185.304 85.9199 185.44 85.7387C185.576 85.5575 185.75 85.4077 185.949 85.2995L192.907 81.5187C193.833 80.8212 194.999 80.5187 196.149 80.6774C197.299 80.8362 198.339 81.4433 199.041 82.3655C199.742 83.2878 200.049 84.45 199.892 85.5972C199.736 86.7444 199.13 87.783 198.207 88.4852L192.631 94.1351C192.472 94.2963 192.279 94.4214 192.067 94.5019C191.855 94.5824 191.628 94.6164 191.402 94.6016C191.176 94.5867 190.955 94.5234 190.756 94.4159C190.556 94.3084 190.382 94.1592 190.245 93.9786L185.444 87.6299C185.307 87.4493 185.211 87.2414 185.163 87.0204C185.114 86.7994 185.113 86.5705 185.161 86.3494Z" fill="#3F3D56"/>
<path d="M197.277 64.6761C198.278 61.4943 200.555 58.576 203.703 57.5004C206.852 56.4247 211.462 58.0633 213.829 60.4159C218.159 64.7194 218.292 69.9876 215.317 74.6595C214.726 74.6283 212.684 74.6052 212.085 74.5828L211.238 71.7669V74.555C206.564 74.411 201.698 74.5012 196.829 74.5945C196.392 71.2867 196.276 67.858 197.277 64.6761Z" fill="#2F2E41"/>
<path d="M196.252 197.927H191.989L189.961 181.527L196.253 181.527L196.252 197.927Z" fill="#FFB6B6"/>
<path d="M222.527 197.927H218.264L216.236 181.527L222.528 181.527L222.527 197.927Z" fill="#FFB6B6"/>
<path d="M210.079 97.2005L211.045 99.7053L210.852 102.21L191.946 108.741L192.884 97.7787L195.009 95.2739L210.079 97.2005Z" fill="#FFB6B6"/>
<path d="M204.101 74.6597C207.83 74.6597 210.853 71.6447 210.853 67.9255C210.853 64.2063 207.83 61.1913 204.101 61.1913C200.372 61.1913 197.349 64.2063 197.349 67.9255C197.349 71.6447 200.372 74.6597 204.101 74.6597Z" fill="#FFB7B7"/>
<path d="M214.312 108.694V112.974C214.312 112.974 219.335 119.484 216.63 124.494L224.38 191.164H216.266L202.72 134.899L196.946 190.008H189.991L189.162 146.178C188.943 134.65 190.873 123.181 194.853 112.355L214.312 108.694Z" fill="#2F2E41"/>
<path d="M199.461 59.1564C200.759 58.3676 202.245 57.9409 203.764 57.9209C205.284 57.9009 206.781 58.2884 208.098 59.0429C209.416 59.7973 210.507 60.891 211.256 62.2096C212.005 63.5281 212.385 65.0232 212.356 66.5383C208.581 66.7114 204.616 66.7565 200.596 66.7643L199.646 64.4451L199.086 66.766C197.861 66.7659 196.633 66.7643 195.404 66.7612C195.354 65.2503 195.702 63.7527 196.414 62.4182C197.126 61.0837 198.177 59.9589 199.461 59.1564Z" fill="#2F2E41"/>
<path d="M198.159 206H195.134L194.594 203.152L193.211 206H185.188C184.803 206 184.429 205.877 184.119 205.65C183.809 205.423 183.58 205.103 183.466 204.737C183.351 204.37 183.357 203.977 183.483 203.615C183.608 203.252 183.847 202.939 184.163 202.721L190.57 198.308V195.428L197.31 195.829L198.159 206Z" fill="#2F2E41"/>
<path d="M224.821 206H221.796L221.256 203.152L219.873 206H211.849C211.465 206 211.09 205.877 210.78 205.65C210.471 205.423 210.242 205.103 210.127 204.737C210.013 204.37 210.019 203.977 210.144 203.615C210.27 203.252 210.508 202.939 210.825 202.721L217.232 198.308V195.428L223.971 195.829L224.821 206Z" fill="#2F2E41"/>
<path d="M217.384 122.421C217.759 117.277 217.372 112.106 216.236 107.075C214.802 100.726 212.98 92.6464 212.944 92.4375C212.944 92.4334 212.943 92.4293 212.943 92.4252L212.388 80.5905C212.386 80.5561 212.372 80.5237 212.347 80.4995C212.322 80.4754 212.29 80.4613 212.255 80.4602L208.413 80.3314C208.378 80.3302 208.344 80.3153 208.319 80.2898C208.295 80.2643 208.281 80.2302 208.281 80.1947C208.281 79.9092 208.224 79.6266 208.115 79.3628C208.005 79.0991 207.845 78.8595 207.642 78.6576C207.44 78.4558 207.2 78.2957 206.935 78.1865C206.671 78.0772 206.387 78.021 206.101 78.021H198.428C197.931 78.0212 197.451 78.2023 197.078 78.5303C196.706 78.8583 196.466 79.3107 196.404 79.8025C196.4 79.8364 196.384 79.8677 196.359 79.8903C196.333 79.9128 196.3 79.9249 196.266 79.9241L193.28 79.824C193.25 79.823 193.221 79.8318 193.196 79.8491C193.172 79.8664 193.154 79.8912 193.145 79.9197L192.937 80.5778C189.922 90.2587 189.085 100.484 190.486 110.524C190.847 113.196 190.683 117.213 190.546 119.451C190.533 119.67 190.563 119.889 190.635 120.097C190.706 120.304 190.818 120.495 190.964 120.659C191.11 120.823 191.287 120.956 191.485 121.052C191.683 121.147 191.898 121.203 192.117 121.216C197.668 121.534 213.385 129.118 217.148 125.497C217.157 125.489 217.258 124.153 217.384 122.421Z" fill="#3F3D56"/>
<path d="M186.599 78.0621C186.642 78.2509 186.67 78.4428 186.683 78.636L201.754 87.3067L205.417 85.2036L209.322 90.3022L203.2 94.6539C202.705 95.0054 202.11 95.1875 201.503 95.1727C200.895 95.158 200.309 94.9472 199.833 94.5721L184.292 82.3451C183.591 82.604 182.827 82.6439 182.103 82.4593C181.378 82.2748 180.727 81.8746 180.236 81.312C179.745 80.7494 179.437 80.0511 179.354 79.3099C179.271 78.5687 179.416 77.8198 179.77 77.1628C180.124 76.5057 180.67 75.9717 181.335 75.6318C182.001 75.2918 182.755 75.162 183.496 75.2596C184.237 75.3573 184.931 75.6777 185.486 76.1783C186.04 76.6789 186.428 77.336 186.599 78.0621Z" fill="#FFB6B6"/>
<path d="M201.963 86.3494C202.011 86.1282 202.106 85.9199 202.242 85.7387C202.378 85.5575 202.551 85.4077 202.75 85.2995L209.708 81.5187C210.635 80.8215 211.801 80.5192 212.95 80.6781C214.1 80.837 215.14 81.444 215.841 82.3661C216.543 83.2883 216.849 84.4502 216.693 85.5973C216.537 86.7443 215.932 87.7829 215.009 88.4852L209.432 94.1351C209.273 94.2963 209.081 94.4214 208.869 94.5019C208.657 94.5824 208.43 94.6164 208.204 94.6016C207.977 94.5867 207.757 94.5234 207.557 94.4159C207.358 94.3084 207.184 94.1592 207.047 93.9786L202.246 87.6299C202.109 87.4493 202.013 87.2414 201.964 87.0204C201.915 86.7994 201.915 86.5705 201.963 86.3494Z" fill="#3F3D56"/>
<path d="M17.5825 182.637C27.293 182.637 35.165 174.787 35.165 165.102C35.165 155.418 27.293 147.567 17.5825 147.567C7.87195 147.567 0 155.418 0 165.102C0 174.787 7.87195 182.637 17.5825 182.637Z" fill="#F0F0F0"/>
<path d="M172.954 104.253L45.5365 162.596C43.7228 163.424 41.6539 163.5 39.7836 162.809C37.9133 162.117 36.3943 160.714 35.56 158.907L4.11647 90.6047C3.28627 88.7959 3.20939 86.7326 3.9027 84.8673C4.596 83.002 6.00288 81.4872 7.81467 80.6551L135.232 22.3124C137.046 21.4844 139.115 21.4078 140.985 22.0992C142.856 22.7907 144.374 24.1937 145.209 26.0007L176.652 94.3032C177.483 96.112 177.56 98.1754 176.866 100.041C176.173 101.906 174.766 103.421 172.954 104.253Z" fill="white"/>
<path d="M9.93398 85.2588C9.34539 85.5291 8.88835 86.0212 8.66312 86.6272C8.43789 87.2331 8.46287 87.9035 8.73258 88.4911L40.1762 156.794C40.4472 157.381 40.9406 157.836 41.5482 158.061C42.1558 158.286 42.8279 158.261 43.4171 157.992L170.835 99.6491C171.423 99.3788 171.88 98.8867 172.106 98.2808C172.331 97.6748 172.306 97.0045 172.036 96.4169L140.593 28.1143C140.322 27.5273 139.828 27.0715 139.221 26.8469C138.613 26.6222 137.941 26.6471 137.352 26.9161L9.93398 85.2588Z" fill="#E4E4E4"/>
<path d="M172.954 104.253L45.5365 162.596C43.7228 163.424 41.6539 163.5 39.7836 162.809C37.9133 162.117 36.3943 160.714 35.56 158.907L4.11647 90.6047C3.28627 88.7959 3.20939 86.7326 3.9027 84.8673C4.596 83.002 6.00288 81.4872 7.81467 80.6551L135.232 22.3124C137.046 21.4844 139.115 21.4078 140.985 22.0992C142.856 22.7907 144.374 24.1937 145.209 26.0007L176.652 94.3032C177.483 96.112 177.56 98.1754 176.866 100.041C176.173 101.906 174.766 103.421 172.954 104.253ZM8.14068 81.3634C6.51706 82.109 5.25632 83.4665 4.63503 85.138C4.01374 86.8096 4.08265 88.6586 4.82663 90.2795L36.2702 158.582C37.0179 160.201 38.379 161.459 40.0551 162.078C41.7311 162.698 43.5851 162.629 45.2104 161.887L172.628 103.545C174.252 102.799 175.513 101.441 176.134 99.7699C176.755 98.0984 176.686 96.2493 175.942 94.6284L144.499 26.3258C143.751 24.7066 142.39 23.4492 140.714 22.8296C139.038 22.21 137.184 22.2787 135.558 23.0207L8.14068 81.3634Z" fill="#CACACA"/>
<path d="M141.116 73.2582L39.8899 119.608C39.0746 119.98 38.1641 120.092 37.2826 119.928C36.4012 119.765 35.5918 119.334 34.9649 118.695L5.34832 88.4049C4.86259 87.9081 4.50355 87.3023 4.30137 86.6384C4.09918 85.9745 4.05977 85.2718 4.18644 84.5895C4.31312 83.9073 4.60217 83.2653 5.02931 82.7176C5.45645 82.1699 6.00917 81.7324 6.64105 81.442L136.368 21.801C136.991 21.5145 137.674 21.3794 138.36 21.4068C139.046 21.4342 139.716 21.6233 140.315 21.9586C140.914 22.2939 141.424 22.7659 141.805 23.3359C142.185 23.9059 142.425 24.5577 142.504 25.2379L142.522 25.2375L143.647 69.2086C143.669 70.0567 143.441 70.8927 142.991 71.6127C142.541 72.3326 141.889 72.9048 141.116 73.2582ZM136.699 22.5068L6.96806 82.1498C6.44981 82.388 5.99645 82.7468 5.64612 83.196C5.29578 83.6452 5.05871 84.1718 4.95481 84.7314C4.85091 85.2909 4.88323 85.8672 5.04905 86.4118C5.21488 86.9563 5.50936 87.4532 5.90774 87.8607L35.5243 118.151C36.0384 118.675 36.7023 119.029 37.4253 119.163C38.1483 119.297 38.8951 119.205 39.5639 118.9L140.79 72.55C141.424 72.2601 141.959 71.7908 142.328 71.2003C142.697 70.6097 142.884 69.9241 142.866 69.2284L141.75 25.6469C141.735 25.0588 141.574 24.4837 141.281 23.973C140.988 23.4623 140.573 23.032 140.073 22.7208C139.572 22.4096 139.002 22.2271 138.413 22.1898C137.824 22.1524 137.236 22.2613 136.699 22.5068Z" fill="#CACACA"/>
<path d="M77.638 135.961L46.1003 150.402C45.8714 150.507 45.624 150.566 45.3723 150.576C45.1205 150.586 44.8694 150.546 44.6331 150.458C44.3968 150.371 44.1801 150.238 43.9953 150.068C43.8106 149.897 43.6614 149.691 43.5562 149.463C43.4511 149.235 43.3922 148.988 43.3827 148.737C43.3733 148.486 43.4136 148.235 43.5012 148C43.5889 147.764 43.7223 147.548 43.8937 147.364C44.0652 147.18 44.2713 147.031 44.5003 146.927L76.0381 132.486C76.5001 132.275 77.0272 132.256 77.5036 132.432C77.98 132.608 78.3667 132.966 78.5787 133.427C78.7907 133.887 78.8108 134.413 78.6344 134.888C78.458 135.364 78.0996 135.75 77.638 135.961Z" fill="white"/>
<path d="M100.71 91.3306C101.252 92.5036 101.556 93.7716 101.606 95.062C101.655 96.3525 101.45 97.64 101 98.8511C100.551 100.062 99.8663 101.173 98.9861 102.12C98.1059 103.067 97.0472 103.832 95.8704 104.371C94.6937 104.91 93.422 105.212 92.128 105.26C90.8341 105.309 89.5433 105.102 88.3294 104.653C87.1154 104.203 86.0023 103.52 85.0534 102.641C84.1046 101.762 83.3387 100.706 82.7996 99.5316" fill="#CACACA"/>
<path d="M171.818 197.156H31.6127C29.6181 197.154 27.7057 196.362 26.2953 194.956C24.8848 193.549 24.0915 191.642 24.0892 189.652V114.495C24.0915 112.506 24.8849 110.599 26.2953 109.192C27.7058 107.785 29.6181 106.994 31.6127 106.992H171.818C173.813 106.994 175.725 107.785 177.135 109.192C178.546 110.599 179.339 112.506 179.341 114.495V189.652C179.339 191.642 178.546 193.549 177.135 194.956C175.725 196.362 173.813 197.154 171.818 197.156Z" fill="white"/>
<path d="M31.6127 112.057C30.9647 112.058 30.3435 112.315 29.8853 112.772C29.4271 113.229 29.1693 113.849 29.1686 114.495V189.652C29.1693 190.299 29.4271 190.918 29.8853 191.375C30.3435 191.832 30.9647 192.089 31.6127 192.09H171.818C172.466 192.089 173.087 191.832 173.545 191.375C174.004 190.918 174.261 190.299 174.262 189.652V114.495C174.261 113.849 174.004 113.229 173.545 112.772C173.087 112.315 172.466 112.058 171.818 112.057H31.6127Z" fill="#FE9800"/>
<path d="M31.6127 112.057C30.9647 112.058 30.3435 112.315 29.8853 112.772C29.4271 113.229 29.1693 113.849 29.1686 114.495V189.652C29.1693 190.299 29.4271 190.918 29.8853 191.375C30.3435 191.832 30.9647 192.089 31.6127 192.09H171.818C172.466 192.089 173.087 191.832 173.545 191.375C174.004 190.918 174.261 190.299 174.262 189.652V114.495C174.261 113.849 174.004 113.229 173.545 112.772C173.087 112.315 172.466 112.058 171.818 112.057H31.6127Z" fill="url(#paint0_linear_272_7507)"/>
<path d="M171.818 197.156H31.6127C29.6181 197.154 27.7057 196.362 26.2953 194.956C24.8848 193.549 24.0915 191.642 24.0892 189.652V114.495C24.0915 112.506 24.8849 110.599 26.2953 109.192C27.7058 107.785 29.6181 106.994 31.6127 106.992H171.818C173.813 106.994 175.725 107.785 177.135 109.192C178.546 110.599 179.339 112.506 179.341 114.495V189.652C179.339 191.642 178.546 193.549 177.135 194.956C175.725 196.362 173.813 197.154 171.818 197.156ZM31.6127 107.771C29.8253 107.773 28.1116 108.482 26.8476 109.743C25.5837 111.003 24.8727 112.712 24.8707 114.495V189.652C24.8727 191.435 25.5837 193.144 26.8476 194.405C28.1116 195.665 29.8253 196.374 31.6127 196.376H171.818C173.605 196.374 175.319 195.665 176.583 194.405C177.847 193.144 178.558 191.435 178.56 189.652V114.495C178.558 112.712 177.847 111.003 176.583 109.743C175.319 108.482 173.605 107.773 171.818 107.771H31.6127Z" fill="#3F3D56"/>
<path d="M155.85 155.739H44.4658C43.5693 155.738 42.695 155.461 41.9623 154.945C41.2296 154.43 40.6742 153.702 40.3719 152.86L26.1291 113.009C25.8955 112.355 25.8226 111.655 25.9167 110.967C26.0107 110.28 26.2688 109.625 26.6694 109.058C27.07 108.49 27.6012 108.027 28.2186 107.707C28.8359 107.387 29.5212 107.22 30.217 107.219L173.064 107C173.751 106.999 174.428 107.16 175.04 107.47C175.652 107.781 176.181 108.231 176.585 108.785C176.989 109.339 177.255 109.981 177.363 110.657C177.47 111.333 177.415 112.025 177.203 112.677L177.219 112.683L159.845 153.112C159.511 153.892 158.954 154.557 158.244 155.024C157.533 155.491 156.701 155.74 155.85 155.739ZM173.07 107.779L30.218 107.998C29.6474 107.999 29.0853 108.136 28.579 108.399C28.0726 108.661 27.6369 109.041 27.3083 109.506C26.9798 109.972 26.7681 110.509 26.691 111.073C26.6138 111.637 26.6736 112.211 26.8652 112.747L41.108 152.598C41.3559 153.289 41.8114 153.886 42.4124 154.309C43.0133 154.731 43.7305 154.959 44.4658 154.96H155.85C156.548 154.96 157.231 154.757 157.813 154.373C158.396 153.99 158.853 153.445 159.127 152.805L176.346 112.735C176.579 112.194 176.673 111.604 176.62 111.018C176.568 110.432 176.371 109.868 176.046 109.377C175.721 108.886 175.279 108.483 174.76 108.204C174.241 107.925 173.66 107.779 173.07 107.779Z" fill="#3F3D56"/>
<path d="M71.9293 186.309H37.2264C36.718 186.309 36.2303 186.108 35.8707 185.749C35.5112 185.39 35.3092 184.904 35.3092 184.397C35.3092 183.89 35.5112 183.403 35.8707 183.045C36.2303 182.686 36.718 182.485 37.2264 182.485H71.9293C72.4378 182.485 72.9254 182.686 73.285 183.045C73.6445 183.403 73.8465 183.89 73.8465 184.397C73.8465 184.904 73.6445 185.39 73.285 185.749C72.9254 186.108 72.4378 186.309 71.9293 186.309Z" fill="white"/>
<path d="M111.569 155.35C111.569 157.956 110.531 160.456 108.683 162.299C106.835 164.142 104.329 165.177 101.715 165.177C99.1019 165.177 96.5955 164.142 94.7475 162.299C92.8995 160.456 91.8613 157.956 91.8613 155.35" fill="#3F3D56"/>
<path d="M49.231 42.3555C51.1731 42.3555 52.7475 40.7854 52.7475 38.8485C52.7475 36.9116 51.1731 35.3414 49.231 35.3414C47.2889 35.3414 45.7145 36.9116 45.7145 38.8485C45.7145 40.7854 47.2889 42.3555 49.231 42.3555Z" fill="#F0F0F0"/>
<path d="M3.5165 126.525C5.45861 126.525 7.033 124.955 7.033 123.018C7.033 121.081 5.45861 119.511 3.5165 119.511C1.57439 119.511 0 121.081 0 123.018C0 124.955 1.57439 126.525 3.5165 126.525Z" fill="#F0F0F0"/>
<path d="M179.341 60.6701C181.284 60.6701 182.858 59.0999 182.858 57.1631C182.858 55.2262 181.284 53.656 179.341 53.656C177.399 53.656 175.825 55.2262 175.825 57.1631C175.825 59.0999 177.399 60.6701 179.341 60.6701Z" fill="#F0F0F0"/>
<path d="M239.535 206H172.606C172.483 206 172.365 205.951 172.277 205.864C172.19 205.777 172.141 205.659 172.141 205.536C172.141 205.413 172.19 205.295 172.277 205.208C172.365 205.121 172.483 205.072 172.606 205.072H239.535C239.658 205.072 239.776 205.121 239.863 205.208C239.95 205.295 239.999 205.413 239.999 205.536C239.999 205.659 239.95 205.777 239.863 205.864C239.776 205.951 239.658 206 239.535 206Z" fill="#CACACA"/>
</g>
<defs>
<linearGradient id="paint0_linear_272_7507" x1="29.1686" y1="152.074" x2="174.262" y2="152.074" gradientUnits="userSpaceOnUse">
<stop stop-color="#F72C4C"/>
<stop offset="0.471154" stop-color="#FA633D"/>
<stop offset="1" stop-color="#FFAC28"/>
</linearGradient>
<clipPath id="clip0_272_7507">
<rect width="240" height="206" fill="white"/>
</clipPath>
</defs>
</svg>
