<svg preserveAspectRatio="none" width="100%" height="100%" overflow="visible" style="display: block;" viewBox="0 0 16 16" fill="none" xmlns="http://www.w3.org/2000/svg">
<g id="Fire Streamline Solar">
<path id="Vector" d="M8.55493 14.5342C10.6389 14.1165 13.3333 12.6173 13.3333 8.7408C13.3333 5.21307 10.7511 2.86395 8.89433 1.78457C8.48233 1.54505 8 1.86004 8 2.33661V3.5556C8 4.51684 7.59587 6.27141 6.47288 7.0012C5.89955 7.3738 5.28035 6.81613 5.21067 6.13592L5.15345 5.57736C5.08693 4.92802 4.42561 4.53383 3.90664 4.92973C2.97431 5.64096 2 6.8864 2 8.7408C2 13.4815 5.52593 14.6667 7.28887 14.6667C7.3914 14.6667 7.4992 14.6637 7.6114 14.6572C6.74087 14.5828 5.33333 14.0427 5.33333 12.2961C5.33333 10.9299 6.33005 10.0057 7.08733 9.5564C7.291 9.43553 7.5294 9.59247 7.5294 9.82927V10.2221C7.5294 10.5227 7.64567 10.9926 7.9224 11.3143C8.2356 11.6783 8.69527 11.2969 8.73233 10.8182C8.74407 10.6672 8.89593 10.5709 9.02673 10.6474C9.45427 10.8973 10 11.431 10 12.2961C10 13.6615 9.24733 14.2895 8.55493 14.5342Z" fill="var(--fill-0, #FE9800)"/>
</g>
</svg>
