<svg preserveAspectRatio="none" width="100%" height="100%" overflow="visible" style="display: block;" viewBox="0 0 24 24" fill="none" xmlns="http://www.w3.org/2000/svg">
<g id="Frame 2147236914">
<path id="Vector" d="M14.7251 13.7191C14.4145 13.7207 14.1081 13.7942 13.8287 13.9343C13.5493 14.0743 13.304 14.2773 13.1108 14.5282L10.0773 12.5718C10.1878 12.2037 10.1878 11.8097 10.0773 11.4417L13.1108 9.48528C13.4187 9.87857 13.8516 10.1468 14.3328 10.2423C14.814 10.3379 15.3125 10.2547 15.7399 10.0074C16.1674 9.76012 16.4962 9.36477 16.6681 8.89137C16.84 8.41797 16.8439 7.89707 16.6792 7.42096C16.5145 6.94484 16.1917 6.54424 15.7681 6.29011C15.3444 6.03598 14.8473 5.94474 14.3647 6.03253C13.8821 6.12033 13.4452 6.3815 13.1314 6.76978C12.8175 7.15806 12.6471 7.6484 12.6502 8.15392C12.6521 8.34535 12.6801 8.53556 12.7332 8.719L9.69962 10.6754C9.43181 10.3276 9.06575 10.0744 8.65218 9.95078C8.23861 9.82721 7.79802 9.83942 7.39148 9.98572C6.98494 10.132 6.63259 10.4052 6.38327 10.7673C6.13394 11.1294 6 11.5626 6 12.0067C6 12.4509 6.13394 12.8841 6.38327 13.2462C6.63259 13.6083 6.98494 13.8814 7.39148 14.0277C7.79802 14.174 8.23861 14.1863 8.65218 14.0627C9.06575 13.9391 9.43181 13.6859 9.69962 13.3381L12.7332 15.2945C12.6801 15.4779 12.6521 15.6681 12.6502 15.8595C12.6502 16.2829 12.7718 16.6967 12.9998 17.0487C13.2278 17.4007 13.5519 17.6751 13.931 17.8371C14.3102 17.9991 14.7274 18.0415 15.1299 17.9589C15.5324 17.8763 15.9021 17.6724 16.1923 17.3731C16.4825 17.0737 16.6801 16.6923 16.7601 16.2771C16.8402 15.8619 16.7991 15.4315 16.6421 15.0404C16.485 14.6493 16.2191 14.315 15.8778 14.0798C15.5366 13.8446 15.1355 13.7191 14.7251 13.7191ZM14.7251 6.86965C14.9713 6.86965 15.212 6.94497 15.4167 7.08609C15.6215 7.2272 15.781 7.42778 15.8753 7.66245C15.9695 7.89712 15.9941 8.15534 15.9461 8.40447C15.8981 8.65359 15.7795 8.88243 15.6054 9.06204C15.4313 9.24164 15.2095 9.36396 14.968 9.41351C14.7265 9.46307 14.4761 9.43763 14.2487 9.34043C14.0212 9.24323 13.8267 9.07862 13.6899 8.86742C13.5531 8.65622 13.4801 8.40792 13.4801 8.15392C13.4801 7.81331 13.6113 7.48665 13.8448 7.2458C14.0782 7.00495 14.3949 6.86965 14.7251 6.86965ZM8.08533 13.291C7.8391 13.291 7.5984 13.2157 7.39367 13.0746C7.18894 12.9334 7.02937 12.7329 6.93515 12.4982C6.84092 12.2635 6.81626 12.0053 6.8643 11.7562C6.91234 11.5071 7.03091 11.2782 7.20502 11.0986C7.37913 10.919 7.60096 10.7967 7.84245 10.7471C8.08395 10.6976 8.33427 10.723 8.56175 10.8202C8.78924 10.9174 8.98367 11.082 9.12047 11.2932C9.25727 11.5044 9.33028 11.7527 9.33028 12.0067C9.33028 12.3473 9.19912 12.674 8.96565 12.9148C8.73217 13.1557 8.41551 13.291 8.08533 13.291ZM14.7251 17.1438C14.4788 17.1438 14.2382 17.0685 14.0334 16.9274C13.8287 16.7863 13.6691 16.5857 13.5749 16.351C13.4807 16.1163 13.456 15.8581 13.504 15.609C13.5521 15.3599 13.6707 15.131 13.8448 14.9514C14.0189 14.7718 14.2407 14.6495 14.4822 14.6C14.7237 14.5504 14.974 14.5758 15.2015 14.673C15.429 14.7702 15.6234 14.9348 15.7602 15.146C15.897 15.3572 15.97 15.6055 15.97 15.8595C15.97 16.2002 15.8389 16.5268 15.6054 16.7677C15.3719 17.0085 15.0553 17.1438 14.7251 17.1438Z" fill="var(--fill-0, black)"/>
</g>
</svg>
